<svg width="20" height="29" viewBox="0 0 20 29" fill="none" xmlns="http://www.w3.org/2000/svg">
<circle cx="9.63636" cy="15.7672" r="8.88636" stroke="#E3E2E0" stroke-width="1.5"/>
<path d="M6.23823 15.6832C6.23823 14.8899 6.3969 14.1992 6.71423 13.6112C7.03156 13.0139 7.47023 12.5519 8.03023 12.2252C8.59956 11.8985 9.24823 11.7352 9.97623 11.7352C10.9189 11.7352 11.6936 11.9639 12.3002 12.4212C12.9162 12.8785 13.3222 13.5132 13.5182 14.3252H12.1462C12.0156 13.8585 11.7589 13.4899 11.3762 13.2192C11.0029 12.9485 10.5362 12.8132 9.97623 12.8132C9.24823 12.8132 8.66023 13.0652 8.21223 13.5692C7.76423 14.0639 7.54023 14.7685 7.54023 15.6832C7.54023 16.6072 7.76423 17.3212 8.21223 17.8252C8.66023 18.3292 9.24823 18.5812 9.97623 18.5812C10.5362 18.5812 11.0029 18.4505 11.3762 18.1892C11.7496 17.9279 12.0062 17.5545 12.1462 17.0692H13.5182C13.3129 17.8532 12.9022 18.4832 12.2862 18.9592C11.6702 19.4259 10.9002 19.6592 9.97623 19.6592C9.24823 19.6592 8.59956 19.4959 8.03023 19.1692C7.47023 18.8425 7.03156 18.3805 6.71423 17.7832C6.3969 17.1859 6.23823 16.4859 6.23823 15.6832Z" fill="#E3E2E0"/>
</svg>
