<svg width="33" height="33" viewBox="0 0 33 33" fill="none" xmlns="http://www.w3.org/2000/svg">
<circle cx="16.5" cy="16.5" r="16.5" fill="#FF8A00"/>
<path d="M16.7103 10.5912C17.8966 10.5912 18.9373 10.823 19.8324 11.2868C20.7382 11.7505 21.4338 12.4137 21.9191 13.2765C22.4152 14.1284 22.6632 15.1206 22.6632 16.2529C22.6632 17.3853 22.4152 18.3775 21.9191 19.2294C21.4338 20.0706 20.7382 20.723 19.8324 21.1868C18.9373 21.6505 17.8966 21.8824 16.7103 21.8824H12.7632V10.5912H16.7103ZM16.6294 19.9574C17.8157 19.9574 18.7324 19.6338 19.3794 18.9868C20.0265 18.3397 20.35 17.4284 20.35 16.2529C20.35 15.0775 20.0265 14.1608 19.3794 13.5029C18.7324 12.8343 17.8157 12.5 16.6294 12.5H15.0279V19.9574H16.6294Z" fill="white"/>
</svg>
