<svg width="197" height="54" viewBox="0 0 197 54" fill="none" xmlns="http://www.w3.org/2000/svg">
<path d="M33.4532 53H31.3047L11.9688 8.74219V49.0938L19 50.1484V53H0.367218V50.1484L7.08597 49.0938V4.48438L0.367218 3.46875V0.617188H20.9532L35.9141 35.0703L51.1875 0.617188H72.2032V3.46875L65.4844 4.48438V49.0938L72.2032 50.1484V53H46.1485V50.1484L53.1797 49.0938V8.74219L33.4532 53ZM93.8438 15.3828C98.8177 15.3828 102.411 16.7109 104.625 19.3672C106.865 22.0234 107.984 26.151 107.984 31.75V34.9531H88.7266V35.5781C88.7266 39.4583 89.0391 42.2188 89.6641 43.8594C90.2891 45.5 91.3047 46.75 92.711 47.6094C94.1172 48.4688 96.0443 48.8984 98.4922 48.8984C100.784 48.8984 103.675 48.5208 107.164 47.7656V50.7734C105.732 51.6328 103.87 52.349 101.578 52.9219C99.3125 53.4688 97.099 53.7422 94.9375 53.7422C88.9219 53.7422 84.4688 52.1797 81.5782 49.0547C78.7136 45.9036 77.2813 41.0339 77.2813 34.4453C77.2813 28.0391 78.6485 23.2604 81.3828 20.1094C84.1433 16.9583 88.2969 15.3828 93.8438 15.3828ZM93.4141 19.3281C91.8516 19.3281 90.6797 20.1745 89.8985 21.8672C89.1433 23.5599 88.7657 26.5547 88.7657 30.8516H97.2813C97.2813 27.362 97.1641 24.9141 96.9297 23.5078C96.6953 22.0755 96.2917 21.0208 95.7188 20.3438C95.1719 19.6667 94.4037 19.3281 93.4141 19.3281ZM127.047 19.4844L129.703 18.1172C133.349 16.2422 136.63 15.3047 139.547 15.3047C146.318 15.3047 149.703 18.9115 149.703 26.125V49.4844L153.375 50.4219V53H135.133V50.4219L138.414 49.4844V27.6484C138.414 25.4609 137.945 23.7552 137.008 22.5312C136.096 21.3073 134.781 20.6953 133.063 20.6953C131.083 20.6953 129.104 21.138 127.125 22.0234V49.4844L130.484 50.4219V53H112.242V50.4219L115.836 49.4844V19.7969L112.242 18.8594V16.2812H126.5L127.047 19.4844ZM182.164 49.7969L179.508 51.1641C175.862 53.0391 172.581 53.9766 169.664 53.9766C162.893 53.9766 159.508 50.3698 159.508 43.1562V19.7969L155.836 18.8594V16.2812H170.797V41.6328C170.797 43.8203 171.253 45.526 172.164 46.75C173.102 47.974 174.43 48.5859 176.148 48.5859C178.128 48.5859 180.107 48.1432 182.086 47.2578V19.7969L178.727 18.8594V16.2812H193.375V49.4844L196.969 50.4219V53H182.711L182.164 49.7969Z" fill="#311F09"/>
</svg>
