<svg width="35" height="25" viewBox="0 0 35 25" fill="none" xmlns="http://www.w3.org/2000/svg">
<path d="M34.4023 7.98193C34.4023 12.0184 33.0612 15.4429 30.3789 18.2554C27.6966 21.0939 23.7253 23.2163 18.4648 24.6226L18.4648 21.0288C20.1055 20.534 21.5117 19.896 22.6836 19.1147C23.8294 18.3335 24.7409 17.4351 25.418 16.4194C26.069 15.4298 26.3945 14.4793 26.3945 13.5679C26.3945 12.9689 26.1992 12.4611 25.8086 12.0444C25.3919 11.6538 24.5846 11.146 23.3867 10.521C21.3815 9.45329 20.3789 7.8387 20.3789 5.67724C20.3789 4.0887 20.9649 2.81266 22.1367 1.84912C23.2826 0.91162 24.806 0.44287 26.707 0.44287C28.9206 0.44287 30.7565 1.146 32.2149 2.55225C33.6732 3.98454 34.4024 5.79443 34.4023 7.98193ZM16.8242 7.98193C16.8242 12.0184 15.4831 15.4429 12.8008 18.2554C10.1185 21.0939 6.14714 23.2163 0.886723 24.6226L0.886724 21.0288C2.52735 20.534 3.9336 19.896 5.10547 19.1147C6.25131 18.3335 7.16277 17.4351 7.83985 16.4194C8.49089 15.4298 8.81641 14.4793 8.81641 13.5679C8.81641 12.9689 8.6211 12.4611 8.23047 12.0444C7.81381 11.6538 7.00652 11.146 5.8086 10.521C3.80339 9.45328 2.80079 7.8387 2.80079 5.67724C2.80079 4.0887 3.38673 2.81266 4.5586 1.84912C5.70443 0.911618 7.22787 0.442868 9.12891 0.442869C11.3425 0.442869 13.1784 1.14599 14.6367 2.55224C16.0951 3.98454 16.8242 5.79443 16.8242 7.98193Z" fill="#311F09"/>
</svg>
